# xmcd
#
# Track frame offsets:
#	150
#	19657
#	35913
#	52834
#	68480
#	87575
#	104834
#	121886
#	138661
#	156667
#	178734
#	195001
#	212973
#	229857
#	245131
#
# Disc length: 3439 seconds
#
# Revision: 0
# Processed by: cddbd v1.5.1PL0 Copyright (c) Steve Scherf et al.
# Submitted via: dBpowerAMP V4.0
#
DISCID=dd0d6d0f
DTITLE=Trent Turner and the Moontowers - Children of Divorce
DYEAR=1900
DGENRE=
TTITLE0=Daddy Rooster
TTITLE1=Children of Divorce
TTITLE2=Will I Ever See A Naked Woman Again
TTITLE3=Self Indulgent Things
TTITLE4=Gone
TTITLE5=Man With a Son
TTITLE6=Ain't That the World WE Live In?
TTITLE7=Strong To the Hole
TTITLE8=Brotherman
TTITLE9=Bowie Knife
TTITLE10=We in Love
TTITLE11=Touch and Grace
TTITLE12=Ride Baby Ride
TTITLE13=Warm It Up
TTITLE14=Somthin' In Tomorrow
EXTD=
EXTT0=
EXTT1=
EXTT2=
EXTT3=
EXTT4=
EXTT5=
EXTT6=
EXTT7=
EXTT8=
EXTT9=
EXTT10=
EXTT11=
EXTT12=
EXTT13=
EXTT14=
PLAYORDER=
